<?xml version="1.0" encoding="utf-8"?>
<!-- Generator: Adobe Illustrator 27.9.0, SVG Export Plug-In . SVG Version: 6.00 Build 0)  -->
<svg version="1.1" id="Camada_1" xmlns="http://www.w3.org/2000/svg" xmlns:xlink="http://www.w3.org/1999/xlink" x="0px" y="0px"
	 viewBox="0 0 615.8 527" style="enable-background:new 0 0 615.8 527;" xml:space="preserve">
<style type="text/css">
	.st0{fill:#8BC6B3;}
	.st1{fill:none;}
	.st2{fill:#83BFD6;}
	.st3{fill:#FD959E;}
	.st4{fill:#FDE48A;}
	.st5{fill:#FCB885;}
</style>
<g>
	<g id="Layer_1">
		<g>
			<g id="_x35_pJcuk.tif">
				<g>
					<path class="st0" d="M108.2,177.8c0,0.2,0,0.4,0,0.6C108.2,178.2,108.2,178,108.2,177.8z M123.9,234.2
						c-0.1-0.2-0.2-0.4-0.3-0.6c0.2,0.3,0.4,0.6,0.5,0.9L123.9,234.2L123.9,234.2z M196.2,81.3c-41,3.7-79.2,36-87,77.2
						c8.3-4.8,19.9-11.4,19.9-11.4c14.7-35.8,57.2-58.4,94.7-47.8c2.7-2.7,10-10,12.7-12.4C223.5,82,209.6,80.1,196.2,81.3z"/>
					<g>
						<path class="st1" d="M158.8,272L158.8,272 M124.4,162.4l-0.1,1.1l4.8-16.4C127,152,125.5,157.1,124.4,162.4L124.4,162.4z"/>
						<path class="st2" d="M172.3,372.9c-25.3,0.5-52.4-2-73.6-15.2C50.8,331.6,28.6,258.1,54.8,210c12.5-29.2,49.1-49.4,74.3-62.9
							c-9,21-5.8,45.7,2,66.5c7,17.4,19.5,32,34.2,43.6c-2.6,4.7-5.1,9.6-6.5,14.8c-30.4-22-50.7-56.9-50.6-94.9
							c-89.9,48.2-45.7,188.2,54.9,179.9C165.8,362.9,166.9,368.3,172.3,372.9L172.3,372.9z"/>
					</g>
					<g>
						<path class="st3" d="M398.9,254.4c-1,2.7-1.9,5.4-2.9,8.1l3.8-10.7C399.5,252.7,399.2,253.6,398.9,254.4z M398.9,254.4
							c-1,2.7-1.9,5.4-2.9,8.1l3.8-10.7C399.5,252.7,399.2,253.6,398.9,254.4z M398.9,254.4c-1,2.7-1.9,5.4-2.9,8.1l3.8-10.7
							C399.5,252.7,399.2,253.6,398.9,254.4z M398.9,254.4c-1,2.7-1.9,5.4-2.9,8.1l3.8-10.7C399.5,252.7,399.2,253.6,398.9,254.4z
							 M403.4,223.2L403.4,223.2c0.5-0.4,0.9-0.8,1.4-1.2C404.3,222.4,403.9,222.8,403.4,223.2z M450,202.3c1.1-0.1,2.3-0.2,3.4-0.2
							C452.3,202.1,451.2,202.1,450,202.3z M560.2,274.8c-5.5-26.8-20.3-48.2-45.2-65.3c-0.2,3.3-1.5,14.6-1.9,18.1
							c58.5,42.6,34.9,140.4-36.3,150.5c-9.6,1.5-15.2,6.4-20.1,10.7c-23.5,16-24.4,39.4-17,60.2c2.5,8.2,3.7,17.4,5.5,26.1
							c1.8,9.5-0.4,12.6-10,12.8c-5.4,0.1-11.3-0.7-16.9-1c-12.7,2.6-20.2-0.2-27.1-11.2C375,446,335.1,426.2,305,404.4
							c-34.4,6.1-77.5,5.6-97.4-19.4c0,0,15,29.9,14.9,29.9c28.9,12.4,51.9,8.8,78.3,5.8c27,19.2,63,37.3,77.2,63.5
							c10.6,18,26,20.5,45.2,18.8c11.2,1.4,27.1,1,33.4-8.1c18.4-25.9-24.2-69.4,5.9-90.6c5.5-4.2,9.9-9.9,16.7-10.8
							C533.7,386.4,572.3,328.1,560.2,274.8L560.2,274.8z M398.9,254.4c-1,2.7-1.9,5.4-2.9,8.1l3.8-10.7
							C399.5,252.7,399.2,253.6,398.9,254.4z"/>
						<path class="st4" d="M404.6,136.9c-9.7-49.8-55.3-82.8-107.8-77.8c-34.3,3.1-53.5,20.5-72.9,40.1
							c45.2,13.8,77.7,52.5,40.9,95.3c-27.4,1-54.5,11.4-74.6,30.4c-41,37.7-47.5,93.7-22.4,142.3c1,2.2,2,3.4,4.6,5.7
							c6.2,5.9,16.6,16.5,24.1,22.7l-0.2,0.2c8.2,8.8,17.2,14.9,26.4,19.1L207.6,385c-0.3-0.3-0.6-0.6-0.9-0.9
							c-2.4-2.5-3.6-7.6-5.2-11.7c-11.6-37.4,28.8-68.5,61.5-48c38.1,28.2,98.6,24.8,118.2-22.2c7.6-19.2,13.2-35.3,19.8-53.8
							c3.7-13.8,1.8-26.7,2.5-41C404.2,184.5,408.2,159.3,404.6,136.9z M381.2,257.3c-4.8,13.1-9.7,26.1-14.5,39.2
							c-16.8,38.3-65.3,37-95.8,14.4c-39.1-24.5-90.6,6.4-86.7,52.2c-0.9-1-2.7-2.8-3.2-4.1c-0.4-0.8-1.1-1.5-1.3-2.3h0
							c-0.6-1.8-2.7-7.1-3.8-9.8h0c-27.7-68.4,24.4-138,96.8-137.3c30.9-31.4,32.7-78.3-4.8-104.7c-4.8-3.5-10.4-7.6-15.8-10.7
							c43.6-38.5,119.8-18,135.5,38.4c5.9,23.7,0.7,49.9,0.2,74.4C387.6,224.7,389,241,381.2,257.3L381.2,257.3z"/>
					</g>
					<g>
						<path class="st5" d="M403.4,222.9v0.3h0C403.4,223.1,403.4,223,403.4,222.9z"/>
						<path class="st3" d="M401,248.4c0,0.2-0.1,0.4-0.2,0.6L401,248.4z"/>
						<path class="st5" d="M514.9,209.6c-0.2,3.3-1.5,14.6-1.9,18.1c-3.4-2.7-7-5.3-10.9-7.8c-9.5-1.4-19-2.7-28.5-4.1l-19.2,1.9
							c-20.5-0.5-36.8,13.9-52.6,27.2c1.6-7.1,1.8-14.7,1.6-21.7h0c9.9-9,21.8-15.8,34.9-19c9.3-2.4,26-3,35.7-4.2
							c8.5,1.2,17.1,2.4,25.6,3.6c3.3-53.5-51-104.8-104.7-94.7c-2.8-5-6.2-9.8-9.9-14.2C452.8,77.2,522.4,141.3,514.9,209.6
							L514.9,209.6z"/>
					</g>
				</g>
				<path class="st4" d="M192.1,245.4c1.3-1.5,2.6-3,3.9-4.4C194.7,242.4,193.4,243.9,192.1,245.4z M192.1,245.4
					c1.3-1.5,2.6-3,3.9-4.4C194.7,242.4,193.4,243.9,192.1,245.4z M192.1,245.4c1.3-1.5,2.6-3,3.9-4.4
					C194.7,242.4,193.4,243.9,192.1,245.4z M192.1,245.4c1.3-1.5,2.6-3,3.9-4.4C194.7,242.4,193.4,243.9,192.1,245.4z M192.1,245.4
					c1.3-1.5,2.6-3,3.9-4.4C194.7,242.4,193.4,243.9,192.1,245.4z M192.1,245.4c1.3-1.5,2.6-3,3.9-4.4
					C194.7,242.4,193.4,243.9,192.1,245.4z M192.1,245.4c1.3-1.5,2.6-3,3.9-4.4C194.7,242.4,193.4,243.9,192.1,245.4z"/>
			</g>
		</g>
	</g>
</g>
</svg>
