<?xml version="1.0" encoding="UTF-8"?>
<svg id="Camada_1" data-name="Camada 1" xmlns="http://www.w3.org/2000/svg" viewBox="0 0 1136.62 683.23">
  <defs>
    <style>
      .cls-1 {
        fill: #fde48a;
      }

      .cls-1, .cls-2, .cls-3, .cls-4, .cls-5, .cls-6, .cls-7 {
        stroke-width: 0px;
      }

      .cls-3 {
        fill: #fcb885;
      }

      .cls-4, .cls-8 {
        fill: none;
      }

      .cls-5 {
        fill: #83bfd6;
      }

      .cls-6 {
        fill: #fd959e;
      }

      .cls-8 {
        stroke: #fd959e;
        stroke-miterlimit: 10;
        stroke-width: 15px;
      }

      .cls-7 {
        fill: #8bc6b3;
      }
    </style>
  </defs>
  <path class="cls-6" d="m798.7,448.13l-18.8,9.06c-.41.2-.9.02-1.1-.38l-1.2-2.49c1.13-.68,1.88-1.92,1.88-3.33,0-2.15-1.75-3.9-3.9-3.9-.47,0-.92.08-1.34.25l-1.83-3.78c1.31-.62,2.21-1.95,2.21-3.5,0-2.16-1.74-3.9-3.9-3.9-.61,0-1.18.14-1.69.38l-1.53-3.18c-.2-.41-.03-.9.38-1.1l18.8-9.06c6.66-3.21,14.67-.41,17.88,6.25l.39.8c3.21,6.66.41,14.67-6.25,17.88Z"/>
  <g id="Layer_1" data-name="Layer 1">
    <g id="_5pJcuk.tif" data-name="5pJcuk.tif">
      <g>
        <path class="cls-7" d="m407.42,228.68v.6-.6Zm15.7,56.4l-.3-.6c.2.3.4.6.5.9l-.2-.3h0Zm72.3-152.9c-41,3.7-79.2,36-87,77.2,8.3-4.8,19.9-11.4,19.9-11.4,14.7-35.8,57.2-58.4,94.7-47.8,2.7-2.7,10-10,12.7-12.4-13-4.9-26.9-6.8-40.3-5.6Z"/>
        <g>
          <path class="cls-4" d="m458.02,322.88h0m-34.4-109.6l-.1,1.1,4.8-16.4c-2.1,4.9-3.6,10-4.7,15.3h0Z"/>
          <path class="cls-5" d="m471.52,423.78c-25.3.5-52.4-2-73.6-15.2-47.9-26.1-70.1-99.6-43.9-147.7,12.5-29.2,49.1-49.4,74.3-62.9-9,21-5.8,45.7,2,66.5,7,17.4,19.5,32,34.2,43.6-2.6,4.7-5.1,9.6-6.5,14.8-30.4-22-50.7-56.9-50.6-94.9-89.9,48.2-45.7,188.2,54.9,179.9,2.7,5.9,3.8,11.3,9.2,15.9h0Z"/>
        </g>
        <g>
          <path class="cls-6" d="m702.89,540.17c-4.82-1.59-8.74-7.64-12.47-13.59-16.2-29.7-56.1-49.5-86.2-71.3-34.4,6.1-77.5,5.6-97.4-19.4,0,0,15,29.9,14.9,29.9,28.9,12.4,51.9,8.8,78.3,5.8,27,19.2,61.32,38.28,75.52,64.48,5.85,9.94,14.85,14.17,23.47,16.56.54-5.14,2.02-7.58,3.89-12.44Z"/>
          <path class="cls-6" d="m861.57,341.96c-.22-5.51-1.05-10.89-2.15-16.29-5.5-26.8-20.3-48.2-45.2-65.3-.2,3.3-1.5,14.6-1.9,18.1,57.59,41.94,35.61,137.38-33.02,149.97.56.37,1.11.76,1.6,1.18.63.38,1.18.92,1.6,1.63,1.78,2.2,2.6,4.96,1.73,8.3.05,1.17.02,2.35-.08,3.51.74-.14,1.48-.27,2.21-.25,1.78.05,3.81-.8,5.51-1.3,5.21-1.55,10.28-3.59,15.12-6.07,4.82-2.46,9.41-5.35,13.73-8.6,4.33-3.25,8.38-6.87,12.12-10.78,3.75-3.92,7.19-8.14,10.29-12.6,3.1-4.47,5.86-9.17,8.24-14.07,2.38-4.89,4.38-9.97,5.97-15.17,1.59-5.2,2.76-10.54,3.47-15.93.72-5.41.98-10.88.76-16.33Z"/>
          <path class="cls-6" d="m702.62,274.08h0c.5-.4.9-.8,1.4-1.2-.5.4-.9.8-1.4,1.2Z"/>
          <path class="cls-1" d="m703.64,187.56c-9.7-49.8-55.3-82.8-107.8-77.8-34.3,3.1-53.5,20.5-72.9,40.1,45.2,13.8,77.7,52.5,40.9,95.3-27.4,1-54.5,11.4-74.6,30.4-41,37.7-47.5,93.7-22.4,142.3,1,2.2,2,3.4,4.6,5.7,6.2,5.9,16.6,16.5,24.1,22.7l-.2.2c8.2,8.8,17.2,14.9,26.4,19.1l-15.1-29.9c-.3-.3-.6-.6-.9-.9-2.4-2.5-3.6-7.6-5.2-11.7-11.6-37.4,28.8-68.5,61.5-48,38.1,28.2,98.6,24.8,118.2-22.2,7.6-19.2,13.2-35.3,19.8-53.8,3.7-13.8,1.8-26.7,2.5-41,.7-22.9,4.7-48.1,1.1-70.5Zm-23.4,120.4c-4.8,13.1-9.7,26.1-14.5,39.2-16.8,38.3-65.3,37-95.8,14.4-39.1-24.5-90.6,6.4-86.7,52.2-.9-1-2.7-2.8-3.2-4.1-.4-.8-1.1-1.5-1.3-2.3h0c-.6-1.8-2.7-7.1-3.8-9.8h0c-27.7-68.4,24.4-138,96.8-137.3,30.9-31.4,32.7-78.3-4.8-104.7-4.8-3.5-10.4-7.6-15.8-10.7,43.6-38.5,119.8-18,135.5,38.4,5.9,23.7.7,49.9.2,74.4-.2,17.7,1.2,34-6.6,50.3h0Z"/>
        </g>
        <g>
          <path class="cls-6" d="m700.22,299.28c0,.2-.1.4-.2.6l.2-.6Z"/>
          <path class="cls-3" d="m814.12,260.48c-.2,3.3-1.5,14.6-1.9,18.1-3.4-2.7-7-5.3-10.9-7.8-9.5-1.4-19-2.7-28.5-4.1l-19.2,1.9c-20.5-.5-36.8,13.9-52.6,27.2,1.6-7.1,1.8-14.7,1.6-21.7h0c9.9-9,21.8-15.8,34.9-19,9.3-2.4,26-3,35.7-4.2,8.5,1.2,17.1,2.4,25.6,3.6,3.3-53.5-51-104.8-104.7-94.7-2.8-5-6.2-9.8-9.9-14.2,67.8-17.5,137.4,46.6,129.9,114.9h0Z"/>
        </g>
      </g>
      <path class="cls-1" d="m491.32,296.28c1.3-1.5,2.6-3,3.9-4.4-1.3,1.4-2.6,2.9-3.9,4.4Zm0,0c1.3-1.5,2.6-3,3.9-4.4-1.3,1.4-2.6,2.9-3.9,4.4Zm0,0c1.3-1.5,2.6-3,3.9-4.4-1.3,1.4-2.6,2.9-3.9,4.4Zm0,0c1.3-1.5,2.6-3,3.9-4.4-1.3,1.4-2.6,2.9-3.9,4.4Zm0,0c1.3-1.5,2.6-3,3.9-4.4-1.3,1.4-2.6,2.9-3.9,4.4Zm0,0c1.3-1.5,2.6-3,3.9-4.4-1.3,1.4-2.6,2.9-3.9,4.4Zm0,0c1.3-1.5,2.6-3,3.9-4.4-1.3,1.4-2.6,2.9-3.9,4.4Z"/>
    </g>
  </g>
  <g>
    <path class="cls-2" d="m193.41,412.18c-1.05-1.05-1.58-2.74-1.58-5.06v-102.94c0-2.32.52-4.01,1.58-5.06,1.05-1.05,2.74-1.58,5.06-1.58h35.53c17.16,0,30.3,5.01,39.43,15.03,9.13,10.02,13.7,24.38,13.7,43.08s-4.57,33.07-13.7,43.08c-9.13,10.02-22.28,15.03-39.43,15.03h-35.53c-2.32,0-4.01-.52-5.06-1.58Zm40.59-20.17c8.85,0,15.55-3.1,20.09-9.3,4.54-6.2,6.81-15.22,6.81-27.06s-2.27-20.86-6.81-27.06c-4.54-6.2-11.23-9.3-20.09-9.3h-16.44v72.72h16.44Z"/>
    <path class="cls-2" d="m312.28,403.39c-7.14-7.8-10.71-18.62-10.71-32.46,0-15.61,3.57-27.06,10.71-34.37,7.14-7.3,17.02-10.96,29.64-10.96s21.33,3.99,27.15,11.95c5.81,7.97,8.72,18.26,8.72,30.88,0,1.33-1.14,3.29-3.4,5.89-2.27,2.6-3.96,3.9-5.06,3.9h-42.34c.55,6.31,2.43,10.79,5.65,13.45,3.21,2.66,7.69,3.98,13.45,3.98,3.1,0,5.92-.36,8.47-1.08,2.54-.72,5.2-1.63,7.97-2.74,1.77-.88,2.99-1.33,3.65-1.33,1.1,0,2.35.8,3.74,2.41,1.38,1.61,2.54,3.43,3.49,5.48.94,2.05,1.41,3.63,1.41,4.73,0,2.55-1.72,4.73-5.15,6.56-3.43,1.83-7.53,3.18-12.29,4.07-4.76.88-8.91,1.33-12.45,1.33-14.61,0-25.48-3.9-32.62-11.71Zm41.59-41.59c0-5.09-1-9.16-2.99-12.2-1.99-3.04-4.98-4.57-8.97-4.57-8.19,0-13.17,5.59-14.94,16.77h26.9Z"/>
    <path class="cls-2" d="m397.86,411.94c-5.76-2.1-8.63-4.81-8.63-8.14,0-2.21,1.05-4.9,3.15-8.05,2.1-3.15,3.98-4.73,5.65-4.73.88,0,2.1.44,3.65,1.33,2.32,1,4.45,1.8,6.39,2.41,1.94.61,4.18.91,6.72.91,3.1,0,5.48-.61,7.14-1.83,1.66-1.22,2.49-2.93,2.49-5.15,0-1.99-.61-3.59-1.83-4.81-1.22-1.22-2.55-2.16-3.98-2.82-1.44-.66-4.26-1.77-8.47-3.32-5.64-2.21-10.21-5.09-13.7-8.63-3.49-3.54-5.23-8.96-5.23-16.27,0-8.52,2.71-15.19,8.14-20.01,5.42-4.81,12.78-7.22,22.08-7.22,5.87,0,11.48.83,16.85,2.49,5.37,1.66,8.05,4.04,8.05,7.14,0,2.1-.83,4.81-2.49,8.14-1.66,3.32-3.21,4.98-4.65,4.98-.44,0-2.05-.58-4.81-1.74-2.77-1.16-5.92-1.74-9.46-1.74-5.87,0-8.8,1.94-8.8,5.81,0,2.44.97,4.32,2.91,5.64,1.94,1.33,4.95,2.82,9.05,4.48.66.33,1.71.78,3.15,1.33,1.44.55,2.66,1.11,3.65,1.66,4.43,2.1,7.94,4.96,10.54,8.55,2.6,3.6,3.9,8.38,3.9,14.36,0,8.63-2.88,15.52-8.63,20.67-5.76,5.15-13.73,7.72-23.91,7.72-6.86,0-13.17-1.05-18.93-3.15Z"/>
    <path class="cls-2" d="m464.27,442.65v-86.5c0-4.87-.14-8.6-.42-11.21-.28-2.6-.64-5.5-1.08-8.72-.33-1.55-.5-2.71-.5-3.49,0-1.77,2.24-3.1,6.72-3.98,4.48-.88,8.44-1.33,11.87-1.33,1.99,0,3.38.75,4.15,2.24.77,1.49,1.35,3.1,1.74,4.81.39,1.72.64,2.91.75,3.57,1.99-3.65,4.95-6.64,8.88-8.96,3.93-2.32,8.38-3.49,13.37-3.49,5.98,0,11.32,1.74,16.02,5.23,4.7,3.49,8.38,8.61,11.04,15.36,2.66,6.75,3.98,14.83,3.98,24.24,0,13.73-3.07,24.6-9.21,32.62-6.14,8.03-14.75,12.04-25.82,12.04-6.53,0-12.18-1.71-16.93-5.15v32.71c0,3.54-3.32,5.31-9.96,5.31h-4.65c-6.64,0-9.96-1.77-9.96-5.31Zm51.63-72.22c0-16.49-4.48-24.74-13.45-24.74-5.31,0-9.85,3.27-13.61,9.79v37.02c3.76,2.1,7.64,3.15,11.62,3.15,10.29,0,15.44-8.41,15.44-25.24Z"/>
    <path class="cls-2" d="m558.24,388.19v-94.3c0-3.54,3.32-5.31,9.96-5.31h4.65c6.64,0,9.96,1.77,9.96,5.31v94.63c0,2.55.47,4.37,1.41,5.48.94,1.11,2.46,1.66,4.57,1.66.55,0,1.3-.11,2.24-.33.94-.22,1.69-.33,2.24-.33,1,0,1.88.83,2.66,2.49.77,1.66,1.38,3.49,1.83,5.48.44,1.99.66,3.32.66,3.99,0,5.42-5.31,8.13-15.94,8.13-16.16,0-24.24-8.96-24.24-26.9Z"/>
    <path class="cls-2" d="m612.86,408.53c-3.98-4.37-5.98-11.15-5.98-20.34v-56.28c0-3.54,3.32-5.31,9.96-5.31h4.65c6.64,0,9.96,1.77,9.96,5.31v52.63c0,3.43.77,6.01,2.32,7.72,1.55,1.72,4.09,2.57,7.64,2.57,2.99,0,5.62-.97,7.89-2.91,2.27-1.94,4.07-4.18,5.4-6.72v-53.29c0-3.54,3.32-5.31,9.96-5.31h4.65c6.64,0,9.96,1.77,9.96,5.31v52.63c0,5.09.14,8.97.42,11.62.28,2.66.64,5.59,1.08,8.8.33,1.44.5,2.66.5,3.65,0,1.77-2.24,3.1-6.72,3.98-4.48.89-8.44,1.33-11.87,1.33-1.99,0-3.38-.8-4.15-2.41-.78-1.6-1.36-3.35-1.74-5.23-.39-1.88-.64-3.16-.75-3.82-2.66,3.54-6.17,6.53-10.54,8.97-4.37,2.43-9.11,3.65-14.2,3.65-8.3,0-14.44-2.18-18.43-6.56Z"/>
    <path class="cls-2" d="m693.55,426.05c0-4.32,1.3-8.14,3.9-11.46,2.6-3.32,6.33-5.92,11.21-7.8l.17-.66c-2.32-1.11-4.1-2.77-5.31-4.98-1.22-2.21-1.83-4.7-1.83-7.47s.86-5.34,2.57-7.72c1.71-2.38,4.18-4.4,7.39-6.06-8.96-4.98-13.45-13.23-13.45-24.74,0-10.07,3.29-17.52,9.88-22.33,6.58-4.81,15.19-7.22,25.82-7.22,4.32,0,8.58.44,12.78,1.33h26.73c1.77,0,3.04.66,3.82,1.99.77,1.33,1.16,3.43,1.16,6.31v2.82c0,5.2-1.33,7.8-3.99,7.8-.89,0-2.05-.05-3.49-.17-1.44-.11-2.66-.28-3.65-.5l-.33.66c.77,1,1.41,2.41,1.91,4.23s.75,3.51.75,5.06c0,9.85-3.13,17.21-9.38,22.08-6.25,4.87-14.42,7.3-24.49,7.3-6.75,0-10.13,1.49-10.13,4.48,0,1.88,1.16,3.18,3.49,3.9,2.33.72,6.31,1.52,11.95,2.41,3.98.44,7.03.89,9.13,1.33,7.86,1.55,14.11,4.07,18.76,7.55,4.65,3.49,6.97,8.99,6.97,16.52,0,5.65-1.77,10.6-5.31,14.86-3.54,4.26-8.55,7.55-15.03,9.88-6.47,2.32-13.97,3.49-22.5,3.49-26.34,0-39.51-7.64-39.51-22.91Zm54.12,1.33c2.88-1.44,4.32-3.43,4.32-5.98s-1.85-4.4-5.56-5.56c-3.71-1.16-10.38-2.08-20.01-2.74-2.77,1-4.95,2.3-6.56,3.9-1.61,1.6-2.41,3.29-2.41,5.06,0,2.32,1.41,4.15,4.23,5.48s7.22,1.99,13.2,1.99c5.64,0,9.9-.72,12.78-2.16Zm-4.82-63.5c2.32-1.94,3.49-4.84,3.49-8.72s-1.16-6.94-3.49-8.88c-2.32-1.94-5.31-2.91-8.96-2.91s-6.64.97-8.97,2.91c-2.32,1.94-3.49,4.9-3.49,8.88s1.16,6.78,3.49,8.72c2.32,1.94,5.31,2.91,8.97,2.91s6.64-.97,8.96-2.91Z"/>
    <path class="cls-2" d="m793.08,408.45c-3.93-4.43-5.89-10.29-5.89-17.6,0-8.85,3.24-16.21,9.71-22.08,6.47-5.87,19.12-8.8,37.94-8.8v-5.48c0-3.21-1.02-5.59-3.07-7.14-2.05-1.55-5.34-2.32-9.88-2.32-3.76,0-7.06.39-9.88,1.16-2.82.78-5.34,1.66-7.55,2.66-2.22,1-3.49,1.49-3.82,1.49-1.11,0-2.32-.83-3.65-2.49s-2.49-3.57-3.49-5.73c-1-2.16-1.49-3.84-1.49-5.06,0-1.88,1.38-3.71,4.15-5.48,2.77-1.77,6.58-3.21,11.46-4.32,4.87-1.11,10.24-1.66,16.1-1.66,12.51,0,21.58,2.46,27.23,7.39,5.65,4.93,8.47,11.71,8.47,20.34v31.21c0,5.09.14,8.97.42,11.62.28,2.66.64,5.59,1.08,8.8.33,1.44.5,2.66.5,3.65,0,1.77-2.24,3.1-6.72,3.98-4.48.89-8.44,1.33-11.87,1.33-1.99,0-3.38-.8-4.15-2.41-.78-1.6-1.36-3.35-1.74-5.23-.39-1.88-.64-3.16-.75-3.82-.67,1.22-1.99,2.8-3.99,4.73-1.99,1.94-4.76,3.74-8.3,5.4-3.54,1.66-7.58,2.49-12.12,2.49-8.52,0-14.75-2.21-18.68-6.64Zm35.61-15.77c2.77-1.99,4.81-4.48,6.14-7.47v-9.13c-15.5,0-23.24,4.1-23.24,12.29,0,2.22.72,3.99,2.16,5.31,1.44,1.33,3.49,1.99,6.14,1.99,3.1,0,6.03-1,8.8-2.99Z"/>
    <path class="cls-2" d="m870.7,410.44c0-.44.22-1.44.66-2.99l36.53-106.75c.88-2.32,4.04-3.49,9.46-3.49h8.63c5.53,0,8.69,1.16,9.46,3.49l36.53,106.75c.33,1.11.5,2.1.5,2.99,0,2.44-2.77,3.65-8.3,3.65h-7.31c-5.42,0-8.52-1.16-9.3-3.49l-6.64-20.25h-39.18l-6.64,20.25c-.78,2.32-3.32,3.49-7.64,3.49h-6.64c-6.75,0-10.13-1.22-10.13-3.65Zm63.09-42l-9.46-29.55c-.78-2.21-1.61-5.75-2.49-10.62h-.66c-.11.66-.36,2.13-.75,4.4-.39,2.27-.97,4.34-1.74,6.23l-9.8,29.55h24.9Z"/>
    <path class="cls-2" d="m983.1,408.78v-106.26c0-3.65,3.32-5.48,9.96-5.48h5.81c6.64,0,9.96,1.83,9.96,5.48v106.26c0,3.65-3.32,5.48-9.96,5.48h-5.81c-6.64,0-9.96-1.83-9.96-5.48Z"/>
  </g>
  <path class="cls-6" d="m737.94,476.24h27.67v22.52c0,6.94-5.63,12.57-12.57,12.57h-2.53c-6.94,0-12.57-5.63-12.57-12.57v-22.52h0Z" transform="translate(1.36 -2.07) rotate(.16)"/>
  <path class="cls-6" d="m727.31,474.67h32.52c1.63,0,2.95,1.32,2.95,2.95h0c0,1.63-1.32,2.95-2.95,2.95h-32.52v-5.9h0Z" transform="translate(237.43 1202.56) rotate(-87.66)"/>
  <path class="cls-6" d="m739.55,474.67h32.52c1.63,0,2.95,1.32,2.95,2.95h0c0,1.63-1.32,2.95-2.95,2.95h-32.52v-5.9h0Z" transform="translate(249.18 1214.8) rotate(-87.66)"/>
  <path class="cls-8" d="m678.94,524.74c2.19,10.95,11.78,19.7,22.69,22.11s22.67-1.07,31.41-8.02c8.74-6.96,14.61-17.11,17.65-27.86s3.4-22.11,2.5-33.24"/>
</svg>